<?xml version="1.0" standalone="no"?>
<!DOCTYPE svg PUBLIC "-//W3C//DTD SVG 20010904//EN"
 "http://www.w3.org/TR/2001/REC-SVG-20010904/DTD/svg10.dtd">
<svg version="1.0" xmlns="http://www.w3.org/2000/svg"
 width="512.000000pt" height="512.000000pt" viewBox="0 0 512.000000 512.000000"
 preserveAspectRatio="xMidYMid meet">
<metadata>
Created by potrace 1.14, written by Peter Selinger 2001-2017
</metadata>
<g transform="translate(0.000000,512.000000) scale(0.100000,-0.100000)"
fill="#000000" stroke="none">
<path d="M2397 4918 c-98 -10 -295 -57 -354 -85 -52 -25 -70 -60 -52 -98 23
-47 55 -52 146 -22 152 50 235 62 423 62 130 0 196 -5 257 -18 263 -57 466
-164 659 -349 207 -200 336 -436 389 -718 24 -123 25 -341 2 -466 -88 -487
-446 -893 -915 -1037 l-82 -25 -55 116 c-153 322 -392 564 -705 717 -207 100
-390 140 -652 140 l-187 0 -11 50 c-99 458 78 977 433 1272 110 90 127 109
127 138 0 30 -40 75 -68 75 -34 0 -116 -63 -232 -179 -208 -209 -338 -447
-401 -734 -29 -134 -36 -370 -15 -512 9 -60 18 -118 19 -128 2 -14 -18 -24
-98 -51 -132 -43 -235 -92 -342 -162 -538 -349 -789 -983 -633 -1599 132 -524
541 -933 1065 -1065 496 -125 1001 7 1381 363 l64 59 64 -59 c379 -355 885
-488 1381 -363 525 132 933 540 1066 1066 159 632 -118 1296 -680 1628 -106
63 -212 109 -321 141 -61 18 -75 26 -73 41 1 11 9 65 18 120 32 216 12 469
-55 674 -98 302 -315 589 -578 764 -298 199 -630 281 -985 244z m-707 -1943
c481 -78 889 -428 1044 -895 52 -158 70 -283 64 -462 -5 -136 -3 -151 14 -174
25 -31 79 -33 107 -3 37 40 41 314 7 493 -9 44 -14 81 -13 82 2 2 45 17 97 34
378 123 688 388 863 739 30 58 58 120 65 138 l11 32 53 -15 c232 -69 422 -184
590 -356 181 -185 299 -410 355 -678 25 -117 24 -372 0 -489 -91 -425 -340
-753 -716 -942 -365 -182 -794 -184 -1167 -4 -119 57 -274 167 -358 254 l-49
50 46 69 c65 97 147 269 147 308 0 23 -7 38 -26 53 -56 44 -89 21 -149 -106
-69 -147 -147 -256 -264 -373 -271 -270 -607 -401 -986 -386 -345 13 -643 143
-885 386 -240 239 -373 541 -387 880 -14 322 82 618 282 875 198 254 498 433
820 489 109 19 319 19 435 1z"/>
</g>
</svg>
